<svg xmlns="http://www.w3.org/2000/svg" width="92" height="92" viewBox="0 0 92 92">
  <g id="otp-icon" transform="translate(-2 -2)">
    <path id="Path_84642" data-name="Path 84642" d="M69.481,78.064,30.2,45.9V96.228h81.768V45.9L72.723,78.064A2.546,2.546,0,0,1,69.481,78.064Z" transform="translate(-23.093 -35.95)" fill="#fff"/>
    <path id="Path_84643" data-name="Path 84643" d="M55.6,30.2,91.893,59.919,128.186,30.2Z" transform="translate(-43.893 -23.093)" fill="#d4f2f6"/>
    <path id="Path_84644" data-name="Path 84644" d="M106.879,91.121H35.325V83.913h3.64a2.554,2.554,0,1,0,0-5.107h-3.64V73.7h8.747a2.554,2.554,0,0,0,0-5.107H35.325V50.083L30.2,45.9V96.228h81.768V45.9l-5.089,4.183Z" transform="translate(-23.093 -35.95)" fill="none"/>
    <path id="Path_84645" data-name="Path 84645" d="M67.247,87.509a2.554,2.554,0,0,1,0,5.107H58.5v5.107h3.64a2.554,2.554,0,1,1,0,5.107H58.5v7.208h71.554V69L95.9,96.98a2.543,2.543,0,0,1-3.242,0L58.5,69V87.491h8.747Z" transform="translate(-46.268 -54.866)" fill="#d4f2f6"/>
    <g id="Group_46066" data-name="Group 46066" transform="translate(2 2)">
      <path id="Path_84646" data-name="Path 84646" d="M91.447,2H4.554A2.551,2.551,0,0,0,2,4.554V62.832a2.551,2.551,0,0,0,2.554,2.554H91.447A2.551,2.551,0,0,0,94,62.832V4.554A2.551,2.551,0,0,0,91.447,2ZM84.293,7.107,48,36.826,11.707,7.107Zm4.6,53.172H7.107V9.95l5.125,4.183L46.388,42.1a2.547,2.547,0,0,0,3.242,0L83.786,14.134,88.893,9.95Z" transform="translate(-2 -2)" fill="#23a2a4"/>
      <path id="Path_84647" data-name="Path 84647" d="M152.591,406.762a2.537,2.537,0,0,0-3.477-.96l-2.481,1.413v-2.861a2.554,2.554,0,1,0-5.107,0v2.861l-2.481-1.413a2.551,2.551,0,1,0-2.517,4.437l2.391,1.358-2.391,1.358a2.551,2.551,0,1,0,2.517,4.437l2.481-1.413v2.861a2.554,2.554,0,1,0,5.107,0V415.98l2.481,1.413a2.551,2.551,0,0,0,2.517-4.437l-2.391-1.358,2.391-1.358A2.537,2.537,0,0,0,152.591,406.762Z" transform="translate(-111.101 -329.395)" fill="#23a2a4"/>
      <path id="Path_84648" data-name="Path 84648" d="M19.409,406.68a2.537,2.537,0,0,0-3.477-.96l-2.5,1.395v-2.861a2.554,2.554,0,0,0-5.107,0v2.861L5.845,405.7a2.551,2.551,0,1,0-2.517,4.437L5.718,411.5l-2.391,1.358a2.551,2.551,0,1,0,2.517,4.437l2.481-1.413v2.861a2.554,2.554,0,0,0,5.107.018V415.9l2.481,1.413a2.551,2.551,0,1,0,2.517-4.437l-2.391-1.358,2.391-1.358a2.558,2.558,0,0,0,.978-3.477Z" transform="translate(-2.023 -329.313)" fill="#23a2a4"/>
      <path id="Path_84649" data-name="Path 84649" d="M403.528,461.6H385.654a2.554,2.554,0,1,0,0,5.107h17.875a2.554,2.554,0,0,0,0-5.107Z" transform="translate(-314.082 -378.365)" fill="#23a2a4"/>
      <path id="Path_84650" data-name="Path 84650" d="M285.791,406.762a2.537,2.537,0,0,0-3.477-.96l-2.481,1.413v-2.861a2.554,2.554,0,1,0-5.107,0v2.861l-2.481-1.413a2.551,2.551,0,0,0-2.517,4.437l2.391,1.358-2.391,1.358a2.551,2.551,0,0,0,2.517,4.437l2.481-1.413v2.861a2.554,2.554,0,1,0,5.107,0V415.98l2.481,1.413a2.551,2.551,0,0,0,2.517-4.437l-2.391-1.358,2.391-1.358A2.553,2.553,0,0,0,285.791,406.762Z" transform="translate(-220.178 -329.395)" fill="#23a2a4"/>
    </g>
  </g>
</svg>
